<svg xmlns="http://www.w3.org/2000/svg" width="1535" height="974" viewBox="0 0 1535 974">
    <g fill="none" fill-rule="evenodd" opacity=".253">
        <g>
            <g>
                <path stroke="#312D2D" d="M0 0.657L1535 0.657" transform="translate(-315 -53) translate(315 53)"/>
                <path stroke="#979797" d="M0 54.657L1535 54.657M0 108.657L1535 108.657M0 162.657L1535 162.657M0 216.657L1535 216.657M0 270.657L1535 270.657M0 324.657L1535 324.657M0 378.657L1535 378.657M0 432.657L1535 432.657M0 486.657L1535 486.657M0 540.657L1535 540.657M0 594.657L1535 594.657M0 648.657L1535 648.657M0 702.657L1535 702.657M0 756.657L1535 756.657M0 810.657L1535 810.657M0 864.657L1535 864.657M0 918.657L1535 918.657" transform="translate(-315 -53) translate(315 53)"/>
                <path stroke="#312D2D" d="M0 972.657L1535 972.657" transform="translate(-315 -53) translate(315 53)"/>
            </g>
        </g>
    </g>
</svg>
