<svg xmlns="http://www.w3.org/2000/svg" width="104" height="57" viewBox="0 0 104 57">
    <g fill="none" fill-rule="evenodd">
        <g>
            <g>
                <g>
                    <g transform="translate(-906 -354) translate(0 324) translate(906 30) translate(15.93)">
                        <path fill="#7644C3" fill-rule="nonzero" d="M4.06 30.962c.178-2.43.445-4.811.891-7.287C6.29 24.89 8.117 25.31 10.48 25.31c3.076 0 5.84-2.289 6.33-5.605.67-4.53-1.56-7.613-5.572-8.36-2.185-.42-4.726-.14-6.242 1.448-.624-1.168-1.427-2.056-2.72-2.056-1.382 0-2.541 1.822-1.739 3.083.58.934 1.07 1.588 1.338 2.149.267.654.178.98.044 1.588C.94 21.667.092 26.104.002 30.54c-.044 1.308.535 1.868 1.65 2.102 1.025.187 2.274-.187 2.408-1.681zM9.588 21.2c-2.408-.14-3.834-1.915-3.567-3.363.312-1.728 1.694-2.802 3.7-2.662 2.096.14 3.122 1.307 3.122 3.129s-1.605 2.99-3.255 2.896zM52.705 0c1.377 0 2.132.884 2.132 2.187-.044 4.886-.622 10.051-1.643 15.868-.178.93 0 1.769.488 2.327.711.744 1.466 1.536 1.466 2.885 0 .884-.755 1.815-1.91 1.815-1.11 0-1.865-.698-2.398-1.582-1.333 1.815-4.042 2.28-6.219 2.28-3.909 0-7.684-2.513-7.684-7.26 0-4.187 3.198-7.259 7.329-7.259 1.91 0 3.775.652 5.197 2.048.666-4.468 1.021-8.47 1.021-11.308C50.484.838 51.24 0 52.705 0zM44.4 15.356c-1.866 0-3.287 1.024-3.287 2.978 0 2.001 1.466 3.397 3.198 3.63 1.51.186 3.82-.465 4.264-2.234.533-2.233-2.043-4.374-4.175-4.374z"/>
                        <circle cx="64.298" cy="17.883" r="7.5" fill="#7644C3"/>
                        <circle cx="26.815" cy="17.883" r="7.5" fill="#7644C3"/>
                        <ellipse cx="30.519" cy="15.191" fill="#FFF" rx="1" ry="2" transform="rotate(-15 30.519 15.19)"/>
                        <ellipse cx="68.519" cy="15.191" fill="#FFF" rx="1" ry="2" transform="rotate(-15 68.519 15.19)"/>
                        <path fill="#4EDA7D" d="M58.61 9.924c.312-5.916 3.135-8.874 8.471-8.874 0 5.476-2.823 8.434-8.47 8.874z"/>
                    </g>
                    <path fill="#4F4C4F" fill-rule="nonzero" d="M17.646 51.932c.204-4.352.238-7.582.238-10.03 0-2.482-.068-4.012-.204-4.59-.204-.748-.748-1.156-1.564-1.224-.85-.068-1.496.306-1.938.952-1.598 2.482-3.434 5.1-5.27 7.14-1.734-2.04-4.25-6.018-5.338-7.378-.374-.476-1.224-.816-1.87-.748-.85.102-1.292.612-1.394 1.258C.068 39.148 0 41.596 0 44.18c0 2.618.068 5.44.17 7.412.034.68.442 1.19 1.598 1.19 1.122 0 1.734-.51 1.734-1.19-.102-2.516-.204-4.998-.204-9.894 1.36 2.278 2.686 4.08 3.944 5.27.408.374.952.646 1.666.646.748 0 1.258-.272 1.632-.612 1.462-1.428 2.89-3.128 4.114-5.27.068 3.4-.068 6.834-.272 10.166-.034.68.442 1.224 1.564 1.258 1.292.034 1.666-.544 1.7-1.224zm5.059 1.7c.578-1.802.918-3.434 1.462-5.1 2.516.204 4.624.374 6.8.612.51 1.564.884 2.958 1.224 4.454.17.748.986.986 1.904.816.476-.068 1.292-.408 1.156-1.36-.646-4.046-2.414-10.098-5.508-19.006-.408-1.156-1.156-1.734-2.278-1.734s-1.802.544-2.176 1.598c-2.176 5.984-4.454 12.818-5.712 18.802-.238 1.088.306 1.564 1.156 1.768.952.204 1.7 0 1.972-.85zm7.446-7.616c-1.7-.136-3.536-.272-5.202-.442 1.122-3.808 1.836-6.256 2.516-8.228 1.36 4.046 2.244 6.834 2.686 8.67zm10.362 7.854c.816-.136 1.632-.646 1.496-1.666-.34-2.516-.544-4.216-.646-5.406 1.088.136 2.108.102 3.094 0 1.87 2.72 3.434 4.624 4.862 5.95.68.612 1.666.68 2.346.204.68-.476.918-1.496.34-2.142-1.258-1.36-2.618-2.924-4.012-4.726 2.482-.986 4.624-2.89 4.488-5.814-.238-5.236-5.236-7.004-9.35-6.766-.952.068-1.87.272-2.788.68-.306-.816-1.19-1.122-2.006-.918-.748.204-1.122.714-1.122 1.462.17 6.12.578 11.866 1.462 17.952.136.85.68 1.394 1.836 1.19zm2.788-10.03c-.85 0-1.632-.102-2.278-.238-.238-2.924-.34-4.964-.34-6.528.51-.204 1.292-.442 2.414-.51 2.55-.17 6.494.85 6.324 3.808-.17 2.754-4.046 3.468-6.12 3.468zm14 9.758c1.02-.102 1.463-.748 1.429-1.36-.204-2.584-.408-4.216-.51-5.474 4.93 3.706 7.752 5.576 8.534 5.78.748.17 1.53-.034 1.938-.918.34-.748.17-1.462-.442-1.87-2.992-1.972-5.882-3.808-8.364-5.78 2.516-2.448 4.794-4.454 7.48-6.936.578-.51.714-1.53-.068-2.074-.442-.306-1.088-.612-1.904-.068-2.822 1.87-4.896 4.284-7.242 6.426-.17-2.346-.17-4.42-.102-6.528.034-1.156-.544-1.734-1.598-1.734-1.156 0-1.768.85-1.768 2.516 0 7.106.17 11.9.816 16.864.102.884.748 1.258 1.802 1.156zm19.68-.68c2.821 0 5.303-.204 7.513-.578 1.054-.204 1.53-.816 1.53-1.734 0-.68-.612-1.53-1.904-1.326-1.768.34-4.08.51-6.97.51h-1.598c-.272-1.564-.476-3.094-.68-4.828 4.896-.136 7.684-.34 8.772-.51.884-.136 1.36-.68 1.36-1.564-.102-.952-.646-1.428-1.632-1.428-2.652.272-6.46.68-8.636.544-.136-1.054-.238-2.72-.238-4.658 4.42-.17 7.514-.34 9.656-.646.85-.136 1.292-.952 1.088-1.802-.17-.782-1.02-1.224-1.768-1.156-4.42.306-7.718.544-9.35.544-.34-.544-.884-.918-1.632-.918-.952 0-1.394.714-1.326 1.87.17 7.344.68 12.988 1.462 16.626.136.578.68.952 1.462.986.986.034 1.972.068 2.89.068zm19.542-.884c.544-3.536.612-8.126.476-11.186 1.14.052 1.845.064 3.214.067l1.512.001c1.054 0 1.734-.51 1.734-1.598 0-1.054-.748-1.462-1.598-1.462-3.026.102-5.916-.102-10.574-.748-.816-.102-1.53-.408-2.006-.918-.408-.408-.748-.816-1.326-.68-.816.17-1.19.646-1.054 1.632.17 1.122.986 2.176 2.074 2.482 1.564.442 3.196.612 4.794.884.272 3.944-.068 7.616-.306 11.288 0 .85.476 1.292 1.36 1.36.986.068 1.564-.34 1.7-1.122z" transform="translate(-906 -354) translate(0 324) translate(906 30)"/>
                </g>
            </g>
        </g>
    </g>
</svg>
