<svg xmlns="http://www.w3.org/2000/svg" width="183" height="43" viewBox="0 0 183 43">
    <path fill="#3B393F" d="M31.512 43V0H21.483v1.728h.669c1.382 0 1.783.642 1.783 1.777V15.75h-3.12V1.975H0v1.974h.446c1.381 0 1.783.593 1.783 1.728V28.93c0 3.209.936 5.53 5.259 5.53h.446c2.362 0 4.59-.445 5.972-1.432l1.159-.84c1.159-.839 1.56-.938 2.763-.938h2.006c.758 0 .98-.247.98-1.036v-12.49h3.12V43h7.578zm9.36 0V0h-7.577v43h7.577zm-29.64-11.01h-.446c-.847 0-.98-.394-.98-2.616V3.95h3.432v26.56c0 1.186-.936 1.482-2.006 1.482zM79.88 19.5v-1.974H60.804c-2.496 0-3.21-1.382-3.21-3.604V1.482H46.453v1.974h.446c1.381 0 1.783.592 1.783 1.728v8.787c0 3.21 1.827 5.53 6.596 5.53H79.88zM60.938 43V27.202h6.24V43h8.914V27.202h8.468v-1.975H43.555v1.975h8.468V43h8.915zm72.133-19.056l5.394-6.418c-4.324-4.69-7.934-7.01-13.907-8.047.49-1.63.758-3.357.758-5.036V.987h-11.143v1.975h.446c1.382 0 1.783.593 1.783 1.728v.494c0 8.54-5.037 13.675-15.645 16.785l.892 1.975c11.009-1.432 17.56-5.381 20.86-10.269 4.813 2.32 7.353 5.233 10.562 10.269zm7.845 11.996v-1.974H124.87V23.154h-8.914v10.812H99.911v1.974h41.005zM173.64 43V20.685h1.783V43H183V0h-7.577v18.71h-1.783V0h-10.028v1.728h.668c1.382 0 1.783.642 1.783 1.777V43h7.577zm-29.907-8.343c11.633-4.592 19.21-14.959 19.21-30.708V1.975h-18.542v1.974h9.628v1.975c0 12.441-1.961 20.488-11.5 26.758l1.204 1.975z"/>
</svg>
