<svg xmlns="http://www.w3.org/2000/svg" width="41" height="17" viewBox="0 0 41 17">
    <path fill="#69666D" fill-rule="evenodd" d="M25.934 8.393c1.235-1.981.596-6.14-2.508-5.629-2.991.493-3.07 5.6-2.516 7.817.095.382.225.737.384 1.068 1.843-.383 3.47-1.377 4.64-3.256M3.43 7.751c-.31-.663-.046-1.314.64-1.57l6.844-2.567c1.293-.486 1.847 1.582.568 2.062L7.22 7.274c2.988 2.088 7.7 4.455 11.868 4.556C17.51 7.148 19.35-.88 25.16.813c2.756.803 3.86 3.785 3.492 6.385-.433 3.048-3.046 5.39-5.91 6.28 5.097 4.202 17.875.54 15.338-4.871-.582-1.241 1.262-2.328 1.847-1.08 2.179 4.647-2.278 7.937-6.248 9.206-4.504 1.44-10.32 1.045-13.46-2.836-4.774.233-9.758-1.846-13.668-4.495l1.72 3.686c.58 1.242-1.264 2.329-1.847 1.08L3.43 7.751"/>
</svg>
