<svg xmlns="http://www.w3.org/2000/svg" width="330" height="89" viewBox="0 0 330 89">
    <g fill="none">
        <path fill="#D71414" d="M65.197 58C70.708 49.94 72 42.687 72 28.38V4H10v4.03h44.778v19.847H11.722v4.03h43.056c-.172 8.362-1.464 16.522-5.253 26.093h15.672z"/>
        <path fill="#D71414" d="M79 73L79 69.056 41.303 69.056 41.303 45 24.129 45 24.129 69.056 0 69.056 0 73z"/>
        <path fill="#3B393F" d="M145.696 54L157 40.874c-8.284-11.208-14.755-16.257-26.49-19.488.69-3.029 1.035-6.159 1.035-9.289V2h-21.572v4.039h.863c2.675 0 3.451 1.211 3.451 3.534v4.039c0 18.982-9.75 29.988-30.287 36.35L85.726 54c22.348-3.13 35.12-11.814 41.246-23.021 8.456 6.26 12.77 12.217 18.724 23.021zM162 73v-4H83v4h79zm82 0v-4.012h-30.913V50.635h21.897v-4.011h-36.752c-4.81 0-6.183-2.809-6.183-7.322v-10.53h40.359V24.76h-40.36V8.012h42.077V4h-63.543v4.012h.858c2.662 0 3.435 1.203 3.435 3.51v27.88c0 6.52 3.52 11.233 12.709 11.233h8.329v18.353H165V73h79zm77.671-22V25.85H330v-3.993h-8.329V0H300v3.493h1.275c2.634 0 3.4 1.198 3.4 3.493V51h16.996zm-54.095-3c16.227 0 26.616-4.621 31.424-8.137l-1.46-4.018c-6.439 2.11-12.535 2.913-20.606 2.913h-.858c-5.667 0-6.611-.804-6.611-5.324v-8.439h21.894c1.46 0 1.888-.502 1.888-2.11V4h-42.671v4.018h25.5v12.96H248v4.017h.859c2.661 0 3.434 1.206 3.434 3.516v8.238c0 6.53 2.662 11.251 14.424 11.251h.859zM291.5 89c22.963 0 31.5-7.6 31.5-17.5S314.463 54 291.5 54 260 61.6 260 71.5 268.537 89 291.5 89zm0-4c-9.781 0-14.5-5.5-14.5-13.5S281.719 58 291.5 58c9.781 0 14.5 5.5 14.5 13.5S301.281 85 291.5 85z"/>
    </g>
</svg>
