<svg xmlns="http://www.w3.org/2000/svg" width="120" height="26" viewBox="0 0 120 26">
    <g fill="none" fill-rule="evenodd">
        <path fill="#D71414" d="M25 0c.552 0 1 .448 1 1v23.188c0 .552-.448 1-1 1H1c-.552 0-1-.448-1-1V1c0-.552.448-1 1-1h24zm-7.937 13.863c-1.151 0-2.088.937-2.088 2.088 0 1.077.815 1.97 1.875 2.077v2.556l.326-.204c1.701-1.067 2.539-3.57 2.124-5.011-.197-.687-.746-1.506-2.237-1.506zm-4.886-8.98V4.88l-.032.006-.043.004c-.13.02-.26.043-.388.07-1.448.279-2.78.975-3.844 2.04-2.84 2.84-2.908 7.421-.203 10.346l.19.197.02.02c1.175 1.173 2.676 1.903 4.3 2.113v-.01c.364.037.724-.06 1.02-.279.318-.234.524-.577.583-.967.058-.39-.038-.778-.272-1.095-.235-.317-.578-.524-.967-.582-.88-.132-1.704-.495-2.365-1.067l-.09-.084c-.062-.056-.12-.114-.179-.174-.058-.06-.112-.121-.166-.184-.053-.062-.106-.123-.156-.189-.614-.788-.95-1.75-.95-2.767 0-1.047.354-2.038 1.003-2.838l.038-.047c.088-.106.18-.21.28-.308.202-.203.422-.38.653-.538.067-.045.135-.09.204-.13l.083-.05c.503-.283 1.062-.473 1.645-.56.39-.06.732-.266.967-.583.234-.317.33-.706.272-1.095-.059-.39-.265-.733-.582-.967-.297-.22-.657-.316-1.02-.28zm5.067.317c-1.151 0-2.087.964-2.087 2.149 0 1.15.936 2.087 2.087 2.087 1.185 0 2.148-.936 2.148-2.087 0-1.185-.963-2.149-2.148-2.149z"/>
        <g fill-rule="nonzero">
            <path fill="#D71414" d="M5.04 10.738c3.08 0 4.9-1.33 4.9-3.262v-.42h-2.8v.42c0 1.638-.7 2.702-2.1 2.702-1.806 0-2.24-1.526-2.24-4.816S3.234.56 5.04.56c1.4 0 2.1 1.05 2.1 2.688v.42h2.8v-.42C9.94 1.316 8.12 0 5.04 0 1.694 0 0 1.708 0 5.362s1.694 5.376 5.04 5.376zm10.01 0c2.786 0 4.27-1.568 4.27-3.822s-1.484-3.808-4.27-3.808c-2.786 0-4.27 1.554-4.27 3.808 0 2.254 1.484 3.822 4.27 3.822zm0-.56c-1.2 0-1.452-1.272-1.469-3.054l-.001-.208c0-1.89.224-3.248 1.47-3.248s1.47 1.358 1.47 3.248c0 1.89-.224 3.262-1.47 3.262z" transform="translate(34.601 7.186)"/>
            <path fill="#333236" d="M24.01 10.738c2.66 0 4.13-.63 4.13-2.142 0-1.372-.994-1.96-3.29-2.548l-.49-.126c-1.064-.28-1.4-.434-1.4-1.092 0-.728.35-1.162 1.05-1.162.7 0 1.05.434 1.05 1.302v.35h2.8v-.14c0-1.372-1.47-2.072-3.85-2.072s-3.85.63-3.85 2.142c0 1.372 1.036 1.89 3.36 2.492l.49.126c1.078.28 1.33.49 1.33 1.148 0 .728-.35 1.162-1.33 1.162-.98 0-1.33-.434-1.33-1.302v-.56h-2.8v.28c0 1.512 1.47 2.142 4.13 2.142zm8.246 0c1.358 0 2.03-.448 2.408-1.134l-.406-.308c-.196.28-.504.588-.994.588-.63 0-.91-.35-.91-1.092V3.948h2.31v-.56h-2.31V1.26h-2.828v2.128H27.72v.56h1.806V8.05c0 1.946.714 2.688 2.73 2.688zm6.118 0c1.162 0 1.456-.084 2.03-.322l.406-.168c.308-.126.532-.154 1.022-.154h.854c.238 0 .308-.07.308-.294V3.388h-2.8v.378c-.434-.546-1.036-.658-1.82-.658-1.946 0-3.71 1.274-3.71 3.808s1.764 3.822 3.71 3.822zm.308-.56c-.924 0-1.218-.952-1.218-3.262 0-1.89.294-3.248 1.218-3.248 1.092 0 1.512.994 1.512 2.576v2.828c0 .7-.42 1.106-1.512 1.106zm8.022.56c1.4 0 2.338-.294 3.01-.812v.588h2.8V3.388h-2.8v5.936c-.504.364-.966.476-1.554.476-.896 0-1.036-.392-1.036-1.022v-5.39h-3.57v.49h.21c.434 0 .56.168.56.49V8.47c0 1.47.462 2.268 2.38 2.268zm9.94-.224v-5.6c.476-.252.882-.294 1.274-.294.686 0 1.12.168 1.89.812l.896-1.96c-.462-.252-.91-.364-1.47-.364-1.064 0-1.82.322-2.59.966v-.686h-3.57v.49h.21c.434 0 .56.168.56.49v6.146h2.8zm7.35.224c1.162 0 1.456-.084 2.03-.322l.406-.168c.308-.126.532-.154 1.022-.154h.854c.238 0 .308-.07.308-.294V3.388h-2.8v.378c-.434-.546-1.036-.658-1.82-.658-1.946 0-3.71 1.274-3.71 3.808s1.764 3.822 3.71 3.822zm.308-.56c-.924 0-1.218-.952-1.218-3.262 0-1.89.294-3.248 1.218-3.248 1.092 0 1.512.994 1.512 2.576v2.828c0 .7-.42 1.106-1.512 1.106zm8.442.336V4.522c.49-.35.952-.476 1.554-.476.896 0 1.036.392 1.036 1.022v5.446h2.8V5.376c0-1.47-.462-2.268-2.38-2.268-1.414 0-2.338.294-3.01.812v-.532h-3.57v.49h.21c.434 0 .56.168.56.49v6.146h2.8zm10.206.224c1.358 0 2.03-.448 2.408-1.134l-.406-.308c-.196.28-.504.588-.994.588-.63 0-.91-.35-.91-1.092V3.948h2.31v-.56h-2.31V1.26H80.22v2.128h-1.806v.56h1.806V8.05c0 1.946.714 2.688 2.73 2.688z" transform="translate(34.601 7.186)"/>
        </g>
    </g>
</svg>
