<svg xmlns="http://www.w3.org/2000/svg" width="138" height="96" viewBox="0 0 138 96">
    <g fill="none" fill-rule="evenodd">
        <g>
            <g>
                <g>
                    <g fill-rule="nonzero">
                        <path fill="#262625" d="M2.22 23.1V6.09l-.06-1.86L3 6l7.5 13.8h1.38L19.38 6l.84-1.77-.06 1.86V23.1h2.22V.6h-2.31l-8.19 15.12-.69 1.44-.69-1.44L2.31.6H0v22.5h2.22zM29.23 3.42V.54h-2.88v2.88h2.88zm-.36 19.68V6.66h-2.16V23.1h2.16zm6.04 0v-6.84c0-.9.025-1.66.075-2.28.05-.62.125-1.11.225-1.47.14-.62.39-1.2.75-1.74s.79-1.015 1.29-1.425c.5-.41 1.06-.735 1.68-.975.62-.24 1.27-.36 1.95-.36.94 0 1.735.22 2.385.66.65.44 1.145 1.06 1.485 1.86.16.4.29.87.39 1.41.1.54.15 1.11.15 1.71v9.45h2.16v-9.45c0-.86-.05-1.645-.15-2.355-.1-.71-.3-1.345-.6-1.905-.54-1.02-1.285-1.815-2.235-2.385-.95-.57-2.145-.855-3.585-.855-.56 0-1.125.085-1.695.255-.57.17-1.115.405-1.635.705-.52.3-1.01.66-1.47 1.08-.46.42-.85.89-1.17 1.41v-3h-2.16v16.5h2.16zm23.47.45c1.24 0 2.435-.295 3.585-.885 1.15-.59 2.045-1.425 2.685-2.505v2.94h2.16V0h-2.16v9.27c-.64-.96-1.515-1.72-2.625-2.28-1.11-.56-2.325-.84-3.645-.84-1.2 0-2.31.215-3.33.645-1.02.43-1.905 1.03-2.655 1.8-.75.77-1.34 1.685-1.77 2.745-.43 1.06-.645 2.23-.645 3.51 0 1.28.215 2.45.645 3.51.43 1.06 1.02 1.975 1.77 2.745s1.635 1.37 2.655 1.8c1.02.43 2.13.645 3.33.645zm0-1.86c-.86 0-1.67-.17-2.43-.51-.76-.34-1.42-.81-1.98-1.41-.56-.6-1.005-1.32-1.335-2.16-.33-.84-.495-1.76-.495-2.76 0-1 .165-1.92.495-2.76.33-.84.775-1.56 1.335-2.16.56-.6 1.22-1.07 1.98-1.41.76-.34 1.57-.51 2.43-.51.86 0 1.67.155 2.43.465.76.31 1.42.76 1.98 1.35.56.59 1.005 1.31 1.335 2.16.33.85.495 1.805.495 2.865 0 1-.165 1.92-.495 2.76-.33.84-.775 1.56-1.335 2.16-.56.6-1.22 1.07-1.98 1.41-.76.34-1.57.51-2.43.51z" transform="translate(-50 -74) translate(-21) translate(71 74) translate(.91 71.75)"/>
                        <path fill="#EE8088" d="M73.33 23.1V5.82l-.06-2.07.99 1.8L86.23 23.1h2.28V.6h-2.22v16.62l.06 2.7-1.32-2.19L73.39.6h-2.28v22.5h2.22zm26.68.45c1.16 0 2.24-.215 3.24-.645 1-.43 1.87-1.03 2.61-1.8.74-.77 1.325-1.685 1.755-2.745.43-1.06.645-2.23.645-3.51 0-1.28-.215-2.45-.645-3.51-.43-1.06-1.015-1.97-1.755-2.73s-1.61-1.355-2.61-1.785c-1-.43-2.08-.645-3.24-.645-1.16 0-2.24.215-3.24.645-1 .43-1.87 1.025-2.61 1.785-.74.76-1.325 1.67-1.755 2.73-.43 1.06-.645 2.23-.645 3.51 0 1.28.215 2.45.645 3.51.43 1.06 1.015 1.975 1.755 2.745s1.61 1.37 2.61 1.8c1 .43 2.08.645 3.24.645zm0-1.86c-.82 0-1.6-.17-2.34-.51-.74-.34-1.39-.81-1.95-1.41-.56-.6-1-1.32-1.32-2.16-.32-.84-.48-1.76-.48-2.76 0-1 .16-1.915.48-2.745.32-.83.76-1.545 1.32-2.145.56-.6 1.21-1.07 1.95-1.41.74-.34 1.52-.51 2.34-.51.82 0 1.6.17 2.34.51.74.34 1.385.81 1.935 1.41.55.6.99 1.315 1.32 2.145.33.83.495 1.745.495 2.745s-.165 1.92-.495 2.76c-.33.84-.77 1.56-1.32 2.16-.55.6-1.195 1.07-1.935 1.41-.74.34-1.52.51-2.34.51zm17.83 1.86c.26 0 .535-.005.825-.015.29-.01.595-.035.915-.075v-1.8c-.54.06-1.06.09-1.56.09-.76 0-1.365-.085-1.815-.255-.45-.17-.79-.415-1.02-.735-.23-.32-.375-.715-.435-1.185-.06-.47-.09-.995-.09-1.575V8.46h4.92V6.6h-4.92V2.1h-2.16v4.5h-3.39v1.86h3.39V18c0 .82.085 1.57.255 2.25.17.68.465 1.265.885 1.755s.97.87 1.65 1.14c.68.27 1.53.405 2.55.405zm10.84 0c.76 0 1.495-.105 2.205-.315.71-.21 1.375-.5 1.995-.87.62-.37 1.19-.805 1.71-1.305.52-.5.97-1.04 1.35-1.62l-1.44-1.14c-.64.96-1.455 1.765-2.445 2.415-.99.65-2.115.975-3.375.975-.9 0-1.705-.15-2.415-.45-.71-.3-1.315-.715-1.815-1.245-.5-.53-.9-1.155-1.2-1.875-.3-.72-.49-1.51-.57-2.37h13.65v-1.2c0-1.2-.2-2.31-.6-3.33-.4-1.02-.955-1.905-1.665-2.655-.71-.75-1.55-1.34-2.52-1.77-.97-.43-2.025-.645-3.165-.645-1.08 0-2.1.215-3.06.645-.96.43-1.805 1.03-2.535 1.8-.73.77-1.305 1.685-1.725 2.745-.42 1.06-.63 2.23-.63 3.51 0 1.28.205 2.45.615 3.51.41 1.06.98 1.975 1.71 2.745s1.6 1.37 2.61 1.8c1.01.43 2.115.645 3.315.645zm5.49-9.6h-11.55c.1-.86.32-1.655.66-2.385.34-.73.765-1.36 1.275-1.89.51-.53 1.095-.94 1.755-1.23.66-.29 1.35-.435 2.07-.435.82 0 1.57.15 2.25.45.68.3 1.27.715 1.77 1.245.5.53.9 1.155 1.2 1.875.3.72.49 1.51.57 2.37z" transform="translate(-50 -74) translate(-21) translate(71 74) translate(.91 71.75)"/>
                    </g>
                    <g transform="translate(-50 -74) translate(-21) translate(71 74) translate(42 1)">
                        <g stroke="#060B18" stroke-linejoin="round" stroke-width="1.5">
                            <path d="M29.46 13.704c0-7.373-5.906-13.35-13.192-13.35-7.287 0-13.194 5.977-13.194 13.35 0 .715.057 1.416.164 2.1L0 21.87l3.074 1.874v5.98h7.673l1.294 5.884H28.18l-3.375-11.73c2.847-2.448 4.656-6.096 4.656-10.173z" transform="translate(9.951 8.707)"/>
                            <path stroke-linecap="round" d="M4.91 35.812L31.098 35.812" transform="translate(9.951 8.707)"/>
                        </g>
                        <rect width="51" height="53.488" stroke="#060B18" stroke-linejoin="round" stroke-width="1.5" rx="8"/>
                        <path fill="#EE8088" d="M28.683 14.927c-.998 0-1.901.418-2.561 1.093-.66-.675-1.563-1.093-2.561-1.093-2.02 0-3.659 1.709-3.659 3.816 0 4.835 6.22 7.379 6.22 7.379s6.22-2.544 6.22-7.379c0-2.107-1.639-3.816-3.66-3.816"/>
                    </g>
                </g>
            </g>
        </g>
    </g>
</svg>
