<svg width="27" height="27" viewBox="0 0 27 27" xmlns="http://www.w3.org/2000/svg">
    <g fill="none" fill-rule="evenodd">
        <path d="M10.936 3.645c-3.377 0-4.898 2.117-5.565 3.31-3.661 7.799 6.923 14.965 9.764 16.746.411.259.929.259 1.34 0 2.842-1.78 13.425-8.947 9.764-16.745-.667-1.194-2.189-3.311-5.565-3.311-3.775.144-4.81 2.684-4.87 2.846-.058-.162-1.093-2.702-4.868-2.846" fill="#7644C3"/>
        <path d="M8.302 2.295c-3.377 0-4.898 2.117-5.565 3.31C-.924 13.405 9.66 20.57 12.5 22.352c.411.259.929.259 1.34 0 2.842-1.78 13.425-8.947 9.764-16.745-.667-1.194-2.19-3.311-5.565-3.311-3.775.144-4.81 2.684-4.87 2.846-.058-.162-1.093-2.702-4.868-2.846" stroke="#2F2C28" stroke-linejoin="round"/>
    </g>
</svg>
